# xmcd
#
# Track frame offsets:
#	150
#	13589
#	33585
#	51440
#	68726
#	83064
#	99792
#	123195
#	140758
#	171449
#	190426
#	203735
#	220060
#	239911
#	260949
#
# Disc length: 3762 seconds
#
# Revision: 0
# Processed by: cddbd v1.5.1PL2 Copyright (c) Steve Scherf et al.
# Submitted via: audiograbber 1.83.01
#
DISCID=e30eb00f
DTITLE=Yuri - Mis 30 mejores canciones [CD 2)
DYEAR=2003
DGENRE=Ballad
TTITLE0=Hombres al borde de un ataque de celos
TTITLE1=Imposible amarte como yo
TTITLE2=El apagón
TTITLE3=No puedo más
TTITLE4=Embrujada (Estoy)
TTITLE5=Me tienes que querer
TTITLE6=Todo mi corazón
TTITLE7=Quiero volver a empezar
TTITLE8=Celia mix
TTITLE9=Poligamia
TTITLE10=Hola
TTITLE11=Quien eres tú
TTITLE12=Amiga mía
TTITLE13=Detrás de mi ventana
TTITLE14=De qué te vale fingir
EXTD=
EXTT0=
EXTT1=
EXTT2=
EXTT3=
EXTT4=
EXTT5=
EXTT6=
EXTT7=
EXTT8=
EXTT9=
EXTT10=
EXTT11=
EXTT12=
EXTT13=
EXTT14=
PLAYORDER=
